<?xml version="1.0" encoding="utf-8"?>
<svg viewBox="44.573 40.056 422.284 413.081" xmlns="http://www.w3.org/2000/svg">
  <path d="M 40.025 717.84 C 40.025 717.37 39.643 716.988 39.173 716.988 L 30.612 716.988 C 30.142 716.988 29.761 717.37 29.761 717.84 L 29.761 720.899 C 29.761 721.368 30.142 721.75 30.612 721.75 L 39.173 721.75 C 39.643 721.75 40.025 721.368 40.025 720.899 L 40.025 717.84 Z M 29.187 717.84 C 29.187 717.37 28.805 716.988 28.335 716.988 L 25.276 716.988 C 24.806 716.988 24.425 717.37 24.425 717.84 L 24.425 720.899 C 24.425 721.368 24.806 721.75 25.276 721.75 L 28.335 721.75 C 28.805 721.75 29.187 721.368 29.187 720.899 L 29.187 717.84 Z M 31.055 718.282 L 31.055 720.456 L 38.731 720.456 L 38.731 718.282 L 31.055 718.282 Z M 25.718 718.282 L 25.718 720.456 L 27.893 720.456 L 27.893 718.282 L 25.718 718.282 Z M 29.187 712.59 C 29.187 712.12 28.805 711.739 28.335 711.739 L 25.276 711.739 C 24.806 711.739 24.425 712.12 24.425 712.59 L 24.425 715.649 C 24.425 716.119 24.806 716.501 25.276 716.501 L 28.335 716.501 C 28.805 716.501 29.187 716.119 29.187 715.649 L 29.187 712.59 Z M 40.025 712.59 C 40.025 712.12 39.643 711.739 39.173 711.739 L 30.612 711.739 C 30.142 711.739 29.761 712.12 29.761 712.59 L 29.761 715.649 C 29.761 716.119 30.142 716.501 30.612 716.501 L 39.173 716.501 C 39.643 716.501 40.025 716.119 40.025 715.649 L 40.025 712.59 Z M 31.055 713.033 L 31.055 715.207 L 38.731 715.207 L 38.731 713.033 L 31.055 713.033 Z M 25.718 713.033 L 25.718 715.207 L 27.893 715.207 L 27.893 713.033 L 25.718 713.033 Z M 29.187 707.341 C 29.187 706.871 28.805 706.49 28.335 706.49 L 25.276 706.49 C 24.806 706.49 24.425 706.871 24.425 707.341 L 24.425 710.4 C 24.425 710.87 24.806 711.252 25.276 711.252 L 28.335 711.252 C 28.805 711.252 29.187 710.87 29.187 710.4 L 29.187 707.341 Z M 40.025 707.341 C 40.025 706.871 39.643 706.49 39.173 706.49 C 39.058 706.677 30.569 706.559 30.612 706.49 C 30.142 706.49 29.761 706.871 29.761 707.341 L 29.761 710.4 C 29.761 710.87 30.142 711.252 30.612 711.252 L 39.173 711.252 C 39.643 711.252 40.025 710.87 40.025 710.4 L 40.025 707.341 Z M 31.055 707.783 L 31.055 709.958 L 38.731 709.958 L 38.731 707.783 L 31.055 707.783 Z M 25.718 707.783 L 25.718 709.958 L 27.893 709.958 L 27.893 707.783 L 25.718 707.783 Z" style="fill: rgb(110, 118, 142);" transform="matrix(27.069503, 0, 0, 27.069503, -616.599102, -19084.276333)"/>
</svg>