<?xml version="1.0" encoding="UTF-8" standalone="no"?>
<!DOCTYPE svg PUBLIC "-//W3C//DTD SVG 1.1//EN" "http://www.w3.org/Graphics/SVG/1.1/DTD/svg11.dtd">
<svg width="100%" height="100%" viewBox="0 0 1000 1000" version="1.1" xmlns="http://www.w3.org/2000/svg" xmlns:xlink="http://www.w3.org/1999/xlink" xml:space="preserve" style="fill-rule:evenodd;clip-rule:evenodd;stroke-linejoin:round;stroke-miterlimit:2;">
    <g transform="matrix(1,0,0,1,-1228,0)">
        <g id="dashboard-icon" transform="matrix(0.848896,0,0,0.786782,185.555,0)">
            <rect x="1228" y="0" width="1178" height="1271" style="fill:none;"/>
            <clipPath id="_clip1">
                <rect x="1228" y="0" width="1178" height="1271"/>
            </clipPath>
            <g clip-path="url(#_clip1)">
                <g id="dashboard-icon1" transform="matrix(75.5128,0,0,81.4744,-627.717,-31281.5)">
                    <path d="M39.895,391.319C39.895,391.124 39.737,390.966 39.542,390.966C39.542,390.966 33.666,390.966 33.666,390.966C33.471,390.966 33.313,391.124 33.313,391.319L33.313,399.189C33.313,399.384 33.471,399.543 33.666,399.543C33.666,399.543 39.542,399.543 39.542,399.543C39.737,399.543 39.895,399.384 39.895,399.189C39.895,399.189 39.895,391.319 39.895,391.319ZM31.437,394.93C31.437,394.735 31.279,394.577 31.084,394.577L25.208,394.577C25.013,394.577 24.855,394.735 24.855,394.93C24.855,394.93 24.855,399.189 24.855,399.189C24.855,399.384 25.013,399.543 25.208,399.543C25.208,399.543 31.084,399.543 31.084,399.543C31.279,399.543 31.437,399.384 31.437,399.189L31.437,394.93ZM34.799,392.452L34.799,398.056L38.409,398.056L38.409,392.452L34.799,392.452ZM26.341,396.063L26.341,398.056L29.951,398.056L29.951,396.063L26.341,396.063ZM31.437,384.296C31.437,384.101 31.279,383.943 31.084,383.943L25.208,383.943C25.013,383.943 24.855,384.101 24.855,384.296C24.855,384.296 24.855,392.71 24.855,392.71C24.855,392.905 25.013,393.063 25.208,393.063C25.208,393.063 31.084,393.063 31.084,393.063C31.279,393.063 31.437,392.905 31.437,392.71L31.437,384.296ZM26.341,385.429L26.341,391.577L29.951,391.577L29.951,385.429L26.341,385.429ZM39.895,384.296C39.895,384.101 39.737,383.943 39.542,383.943L33.666,383.943C33.471,383.943 33.313,384.101 33.313,384.296L33.313,388.449C33.313,388.644 33.471,388.803 33.666,388.803C33.666,388.803 39.542,388.803 39.542,388.803C39.737,388.803 39.895,388.644 39.895,388.449C39.895,388.449 39.895,384.296 39.895,384.296ZM34.799,385.429L34.799,387.316L38.409,387.316L38.409,385.429L34.799,385.429Z" style="fill:rgb(110,118,142);"/>
                </g>
            </g>
        </g>
    </g>
</svg>
