<?xml version="1.0" encoding="utf-8"?>
<svg viewBox="66.347 59.867 359.908 376.573" width="359.908" height="376.573" xmlns="http://www.w3.org/2000/svg">
  <path d="M 337.4 1579.86 C 337.4 1580.63 336.779 1581.25 336.014 1581.25 C 336.014 1581.25 335.486 1581.25 335.486 1581.25 C 334.721 1581.25 334.1 1580.63 334.1 1579.86 L 334.1 1577.84 C 334.1 1577.07 334.721 1576.45 335.486 1576.45 L 336.6 1576.45 L 336.6 1575.35 C 336.6 1574.243 336.208 1573.226 335.556 1572.432 C 334.712 1571.405 333.432 1570.75 332 1570.75 C 329.461 1570.75 327.4 1572.81 327.4 1575.35 L 327.4 1576.45 L 328.514 1576.45 C 329.279 1576.45 329.9 1577.07 329.9 1577.84 C 329.9 1577.84 329.9 1579.86 329.9 1579.86 C 329.9 1580.63 329.279 1581.25 328.514 1581.25 C 328.514 1581.25 327.986 1581.25 327.986 1581.25 C 327.221 1581.25 326.6 1580.63 326.6 1579.86 L 326.6 1575.35 C 326.6 1572.37 329.02 1569.95 332 1569.95 C 334.98 1569.95 337.4 1572.37 337.4 1575.35 L 337.4 1579.86 Z M 327.4 1577.25 L 327.4 1579.86 C 327.4 1580.19 327.663 1580.45 327.986 1580.45 L 328.514 1580.45 C 328.837 1580.45 329.1 1580.19 329.1 1579.86 L 329.1 1577.84 C 329.1 1577.51 328.837 1577.25 328.514 1577.25 L 327.4 1577.25 Z M 336.6 1577.25 L 335.486 1577.25 C 335.163 1577.25 334.9 1577.51 334.9 1577.84 C 334.9 1577.84 334.9 1579.86 334.9 1579.86 C 334.9 1580.19 335.163 1580.45 335.486 1580.45 L 336.014 1580.45 C 336.337 1580.45 336.6 1580.19 336.6 1579.86 L 336.6 1577.25 Z" style="fill:rgb(110,118,142);" transform="matrix(33.324866, 0, 0, 33.324866, -10817.554531, -52258.5038)"/>
</svg>