<?xml version="1.0" encoding="UTF-8" standalone="no"?>
<!DOCTYPE svg PUBLIC "-//W3C//DTD SVG 1.1//EN" "http://www.w3.org/Graphics/SVG/1.1/DTD/svg11.dtd">
<svg width="100%" height="100%" viewBox="0 0 278 42" version="1.1" xmlns="http://www.w3.org/2000/svg" xmlns:xlink="http://www.w3.org/1999/xlink" xml:space="preserve" xmlns:serif="http://www.serif.com/" style="fill-rule:evenodd;clip-rule:evenodd;stroke-linejoin:round;stroke-miterlimit:2;">
    <g id="Artboard1" transform="matrix(0.466671,0,0,0.0498878,0,0)">
        <rect x="0" y="0" width="595.28" height="841.89" style="fill:none;"/>
        <clipPath id="_clip1">
            <rect x="0" y="0" width="595.28" height="841.89"/>
        </clipPath>
        <g clip-path="url(#_clip1)">
            <g transform="matrix(2.14284,0,0,20.045,-340.154,-8016.9)">
                <g>
                    <path d="M256.92,420.193C257.708,416.998 260.406,414.756 263.559,414.756C266.921,414.756 269.659,416.997 270.448,420.193L256.92,420.193ZM274.806,423.637C274.848,422.932 274.889,422.392 274.889,422.06C274.889,418.823 273.81,416.126 271.652,413.968C269.535,411.81 266.879,410.731 263.684,410.731C260.489,410.731 257.791,411.81 255.634,413.968C253.517,416.126 252.439,418.823 252.439,422.06C252.439,425.297 253.559,427.995 255.759,430.153C257.957,432.311 260.738,433.39 264.017,433.39C268.333,433.39 271.984,431.314 273.976,427.953L269.744,426.666C268.374,428.45 266.465,429.364 264.018,429.364C260.407,429.364 257.543,426.999 256.88,423.637L274.806,423.637ZM288.833,415.047C290.7,415.047 292.277,415.71 293.565,417.08C294.851,418.408 295.473,420.068 295.473,422.06C295.473,424.052 294.851,425.712 293.565,427.082C292.278,428.41 290.701,429.074 288.833,429.074C286.965,429.074 285.43,428.41 284.144,427.082C282.857,425.713 282.235,424.053 282.235,422.06C282.235,420.068 282.857,418.408 284.144,417.08C285.429,415.711 286.965,415.047 288.833,415.047ZM288.376,410.731C285.347,410.731 282.815,411.81 280.782,413.968C278.749,416.126 277.753,418.823 277.753,422.06C277.753,425.297 278.749,427.995 280.782,430.153C282.815,432.311 285.347,433.39 288.376,433.39C291.157,433.39 293.564,432.435 295.556,430.526L295.556,432.849L299.872,432.849L299.872,411.27L295.556,411.27L295.556,413.594C293.564,411.686 291.157,410.731 288.376,410.731ZM307.439,432.849L307.439,403.197L303.123,403.197L303.123,432.849L307.439,432.849ZM310.329,415.047L313.609,415.047L313.609,426.251C313.609,428.119 314.272,429.695 315.601,430.982C316.929,432.227 318.547,432.849 320.498,432.849L323.652,432.849L323.652,428.699L320.829,428.699C319.169,428.699 317.924,427.371 317.924,425.67L317.924,415.047L323.651,415.047L323.651,411.27L317.924,411.27L317.924,406.996L313.608,406.996L313.608,411.27L310.329,411.27L310.329,415.047ZM333.453,434.676C332.499,437.042 331.045,438.038 328.515,438.038L327.602,438.038L327.602,442.188L328.515,442.188C332.831,442.188 335.487,440.321 337.188,436.129L347.356,411.271L342.916,411.271L336.566,426.958L330.425,411.271L325.985,411.271L334.409,432.311L333.453,434.676ZM358.33,432.849L362.356,432.849L371.444,411.27L367.004,411.27L360.365,427.33L353.683,411.27L349.243,411.27L358.33,432.849ZM374.098,408.075C375.218,409.195 377.044,409.195 378.165,408.075C379.285,406.955 379.285,405.128 378.165,404.008C377.044,402.888 375.218,402.888 374.098,404.008C373.061,405.128 373.061,406.955 374.098,408.075ZM378.29,432.849L378.29,411.27L373.974,411.27L373.974,432.849L378.29,432.849ZM385.881,420.193C386.669,416.998 389.367,414.756 392.52,414.756C395.882,414.756 398.62,416.997 399.409,420.193L385.881,420.193ZM403.766,423.637C403.808,422.932 403.849,422.392 403.849,422.06C403.849,418.823 402.77,416.126 400.612,413.968C398.495,411.81 395.84,410.731 392.645,410.731C389.45,410.731 386.752,411.81 384.595,413.968C382.478,416.126 381.4,418.823 381.4,422.06C381.4,425.297 382.52,427.995 384.719,430.153C386.918,432.311 389.699,433.39 392.978,433.39C397.294,433.39 400.945,431.314 402.938,427.953L398.704,426.666C397.335,428.45 395.425,429.364 392.978,429.364C389.367,429.364 386.504,426.999 385.84,423.637L403.766,423.637ZM415.531,432.849L420.22,418.449L424.868,432.849L428.727,432.849L435.906,411.27L431.549,411.27L426.819,426.168L422.171,411.27L418.27,411.27L413.58,426.168L408.891,411.27L404.533,411.27L411.713,432.849L415.531,432.849ZM243.309,411.27L238.992,411.27L238.992,432.849L243.308,432.849L243.308,420.815C243.308,419.197 243.848,417.868 244.969,416.831C246.089,415.752 247.5,415.213 249.119,415.213C249.908,415.213 250.53,415.337 250.986,415.545L250.986,410.731C247.459,410.731 244.928,411.976 243.309,414.424L243.309,411.27Z" style="fill:#ffffff;"/>
                    <path d="M221.031,417.978L192.134,401.294L192.127,401.298C191.65,401.033 191.101,400.882 190.516,400.882C189.932,400.882 189.382,401.033 188.906,401.298L188.896,401.292L172.728,410.626L172.73,410.628C171.766,411.211 171.122,412.268 171.122,413.476C171.122,414.807 171.904,415.955 173.033,416.487L173.019,416.508L217.816,442.372C218.334,442.704 218.95,442.897 219.611,442.897C221.448,442.897 222.937,441.408 222.937,439.571C222.937,439.538 222.936,439.505 222.936,439.473L222.937,439.473L222.937,421.009C222.937,419.68 222.156,418.533 221.029,418L221.031,417.978Z" style="fill:rgb(115,105,253);"/>
                    <path d="M160.001,417.978L188.898,401.294L188.905,401.298C189.381,401.033 189.931,400.882 190.515,400.882C191.099,400.882 191.648,401.033 192.126,401.298L192.137,401.292L208.303,410.626L208.301,410.628C209.264,411.211 209.909,412.268 209.909,413.476C209.909,414.807 209.127,415.955 207.997,416.487L208.012,416.508L163.214,442.372C162.696,442.704 162.08,442.897 161.419,442.897C159.583,442.897 158.093,441.408 158.093,439.571C158.093,439.538 158.094,439.505 158.095,439.473L158.093,439.473L158.093,421.035L158.094,421.035L158.093,421.009C158.093,419.68 158.873,418.533 160,418L160,417.978L160.001,417.978Z" style="fill:rgb(1,202,255);"/>
                    <path d="M208.304,410.63L192.134,401.294L192.127,401.298L192.105,401.286L192.105,401.285L192.082,401.273L192.06,401.261L192.059,401.26L192.037,401.249L192.015,401.237L191.969,401.214L191.945,401.203L191.899,401.181L191.899,401.18L191.875,401.17L191.874,401.169L191.851,401.159L191.827,401.148L191.779,401.128L191.755,401.119L191.755,401.118L191.732,401.109L191.731,401.109L191.683,401.091L191.658,401.082L191.61,401.064L191.585,401.055L191.537,401.039L191.511,401.031L191.486,401.024L191.462,401.017L191.436,401.01L191.411,401.003L191.385,400.996L191.385,400.995L191.36,400.989L191.334,400.982L191.308,400.976L191.283,400.97L191.231,400.958L191.23,400.958L191.205,400.953L191.153,400.941L191.127,400.937L191.102,400.932L191.075,400.928L190.997,400.916L190.97,400.912L190.943,400.909L190.917,400.906L190.89,400.902L190.864,400.899L190.837,400.896L190.81,400.894L190.784,400.891L190.703,400.885L190.622,400.882L190.596,400.881L190.568,400.88L190.541,400.88L190.514,400.879L190.487,400.88L190.46,400.88L190.352,400.884L190.326,400.885L190.245,400.891L190.218,400.894L190.192,400.896L190.138,400.902L190.112,400.906L190.085,400.909L190.059,400.912L190.033,400.916L190.006,400.92L189.928,400.932L189.901,400.937L189.875,400.941L189.874,400.941L189.822,400.953L189.796,400.958L189.77,400.964L189.745,400.97L189.693,400.982L189.667,400.989L189.642,400.995L189.642,400.996L189.616,401.003L189.592,401.01L189.566,401.017L189.541,401.024L189.517,401.031L189.516,401.031L189.492,401.039L189.467,401.047L189.443,401.055L189.418,401.064L189.274,401.118L189.274,401.119L189.25,401.128L189.202,401.148L189.178,401.159L189.154,401.169L189.154,401.17L189.13,401.18L189.13,401.181L189.084,401.203L189.06,401.214L189.038,401.225L189.015,401.237L189.014,401.237L188.992,401.249L188.969,401.26L188.969,401.261L188.947,401.273L188.924,401.285L188.924,401.286L188.902,401.298L188.895,401.294L172.725,410.63C171.763,411.213 171.12,412.27 171.12,413.477C171.12,414.808 171.902,415.956 173.031,416.488L173.017,416.509L190.513,426.61L208.01,416.509L207.995,416.488C209.125,415.956 209.907,414.808 209.907,413.477C209.91,412.27 209.266,411.213 208.304,410.63Z" style="fill:rgb(0,153,233);"/>
                </g>
            </g>
        </g>
    </g>
</svg>
