<?xml version="1.0" encoding="UTF-8" standalone="no"?>
<!DOCTYPE svg PUBLIC "-//W3C//DTD SVG 1.1//EN" "http://www.w3.org/Graphics/SVG/1.1/DTD/svg11.dtd">
<svg width="100%" height="100%" viewBox="0 0 1000 1000" version="1.1" xmlns="http://www.w3.org/2000/svg" xmlns:xlink="http://www.w3.org/1999/xlink" xml:space="preserve" style="fill-rule:evenodd;clip-rule:evenodd;stroke-linejoin:round;stroke-miterlimit:2;">
    <g transform="matrix(1,0,0,1,-4377,0)">
        <rect id="property-reports-icon" x="4377" y="0" width="1000" height="1000" style="fill:none;"/>
        <g id="property-reports-icon1">
            <g id="extra-pages-icon" transform="matrix(64.1026,0,0,64.1026,2801.69,-33542.5)">
                <path d="M26.01,537.015C26.028,537.088 26.086,537.265 26.263,537.383C26.386,537.464 26.557,537.51 26.788,537.51L36.954,537.51C37.12,537.51 37.254,537.645 37.254,537.81L37.254,538.563C37.254,538.728 37.12,538.863 36.954,538.863C36.954,538.863 26.788,538.863 26.788,538.863C26.021,538.863 25.539,538.584 25.228,538.275C24.782,537.834 24.684,537.292 24.668,537.188L24.658,537.095L24.658,526.398C24.658,526.233 24.793,526.098 24.958,526.098L25.71,526.098C25.876,526.098 26.01,526.233 26.01,526.398L26.01,537.015ZM40.091,524.878C40.091,523.986 39.368,523.263 38.476,523.263L29.152,523.263C28.26,523.263 27.537,523.986 27.537,524.878L27.537,534.202C27.537,535.094 28.26,535.818 29.152,535.818C29.152,535.818 38.476,535.818 38.476,535.818C39.368,535.818 40.091,535.094 40.091,534.202C40.091,534.202 40.091,524.878 40.091,524.878ZM38.739,524.878L38.739,534.202C38.739,534.348 38.621,534.465 38.476,534.465C38.476,534.465 29.152,534.465 29.152,534.465C29.006,534.465 28.889,534.348 28.889,534.202L28.889,524.878C28.889,524.733 29.006,524.615 29.152,524.615L38.476,524.615C38.621,524.615 38.739,524.733 38.739,524.878ZM35.263,531.85C35.263,531.684 35.128,531.55 34.963,531.55L30.29,531.55C30.124,531.55 29.99,531.684 29.99,531.85L29.99,532.682C29.99,532.847 30.124,532.982 30.29,532.982L34.963,532.982C35.128,532.982 35.263,532.847 35.263,532.682L35.263,531.85ZM37.683,529.124C37.683,528.958 37.548,528.824 37.383,528.824L30.29,528.824C30.124,528.824 29.99,528.958 29.99,529.124L29.99,529.956C29.99,530.122 30.124,530.256 30.29,530.256L37.383,530.256C37.548,530.256 37.683,530.122 37.683,529.956L37.683,529.124ZM37.683,526.398C37.683,526.233 37.548,526.098 37.383,526.098L30.29,526.098C30.124,526.098 29.99,526.233 29.99,526.398L29.99,527.23C29.99,527.396 30.124,527.53 30.29,527.53L37.383,527.53C37.548,527.53 37.683,527.396 37.683,527.23L37.683,526.398Z" style="fill:rgb(110,118,142);"/>
            </g>
        </g>
    </g>
</svg>
