<?xml version="1.0" encoding="UTF-8" standalone="no"?>
<!DOCTYPE svg PUBLIC "-//W3C//DTD SVG 1.1//EN" "http://www.w3.org/Graphics/SVG/1.1/DTD/svg11.dtd">
<svg width="100%" height="100%" viewBox="0 0 1000 1000" version="1.1" xmlns="http://www.w3.org/2000/svg" xmlns:xlink="http://www.w3.org/1999/xlink" xml:space="preserve" style="fill-rule:evenodd;clip-rule:evenodd;stroke-linejoin:round;stroke-miterlimit:2;">
    <g transform="matrix(1,0,0,1,-15927,0)">
        <rect id="contacts-icon" x="15927" y="0" width="1000" height="1000" style="fill:none;"/>
        <g id="contacts-icon1">
            <g id="contacts-icon2" transform="matrix(64.1026,0,0,64.1026,12428.6,-51201.6)">
                <path d="M68.687,799.51C68.687,799.088 68.344,798.746 67.922,798.746L56.827,798.746C56.405,798.746 56.063,799.088 56.063,799.51L56.063,813.581C56.063,814.003 56.405,814.346 56.827,814.346C56.827,814.346 67.922,814.346 67.922,814.346C68.344,814.346 68.687,814.003 68.687,813.581L68.687,799.51ZM59.075,800.176L57.492,800.176L57.492,812.916L67.257,812.916L67.257,800.176L63.405,800.176L63.405,803.698C63.405,803.816 63.336,803.922 63.23,803.971C63.123,804.02 62.998,804.002 62.909,803.926L61.137,802.396L59.585,803.913C59.499,803.997 59.37,804.022 59.259,803.975C59.148,803.928 59.075,803.819 59.075,803.698L59.075,800.176ZM63.235,809.135C63.386,809.129 64.014,809.119 64.642,809.303C65.503,809.556 66.33,810.145 66.33,811.374C66.33,811.731 66.041,812.019 65.685,812.019L60.785,812.019C60.429,812.019 60.14,811.731 60.14,811.374C60.14,810.145 60.967,809.556 61.828,809.303C62.456,809.119 63.083,809.129 63.235,809.135ZM63.235,805.473C62.298,805.473 61.537,806.234 61.537,807.171C61.537,808.108 62.298,808.869 63.235,808.869C64.172,808.869 64.933,808.108 64.933,807.171C64.933,806.234 64.172,805.473 63.235,805.473Z" style="fill:rgb(110,118,142);"/>
            </g>
        </g>
    </g>
</svg>
