<?xml version="1.0" encoding="utf-8"?>
<svg viewBox="20.756 26.365 448.276 436.965" width="448.276" height="436.965" xmlns="http://www.w3.org/2000/svg">
  <path d="M18403.2,118.399L18414.7,50.69C18420.2,18.161 18448.2,-5.497 18481.1,-5.497L18569.1,-5.497C18602.1,-5.497 18630.1,18.161 18635.5,50.686L18646.6,116.685C18669.2,123.649 18691,132.712 18712,143.556L18767.3,104.166C18778.6,95.969 18792.1,91.64 18806.2,91.64C18824.2,91.64 18841,98.686 18853.7,111.425C18853.7,111.425 18916,173.677 18916,173.658C18939.4,196.866 18942.4,233.497 18923.3,260.346L18883.9,315.469C18894.3,335.585 18902.9,356.567 18909.9,378.262L18976.7,389.606L18976.7,389.605C19009.3,395.069 19032.9,423.088 19032.5,456.027L19032.5,543.973C19032.5,576.957 19008.8,604.936 18976.3,610.395L18909.5,621.537C18902.7,643.05 18893.9,664.031 18883.4,684.317L18922.8,739.654C18942,766.496 18938.8,803.12 18915.6,826.323C18915.6,826.323 18853.3,888.575 18853.3,888.575C18840.6,901.314 18823.7,908.36 18805.8,908.36C18791.7,908.36 18778,904.027 18766.6,895.845L18711.5,856.449C18691.4,866.867 18670.4,875.532 18648.7,882.446L18637.4,949.31C18631.9,981.839 18604,1005.5 18571,1005.5C18571,1005.5 18482.8,1005.5 18482.8,1005.5C18449.8,1005.5 18421.9,981.839 18416.4,949.31L18405.2,882.436C18384.4,875.746 18364,867.479 18344.6,857.482L18288.6,897.296C18277.2,905.493 18263.8,909.822 18249.7,909.822C18231.7,909.822 18214.9,902.776 18202.1,890.037C18202.1,890.037 18139.9,827.785 18139.9,827.804C18116.5,804.596 18113.5,767.965 18132.6,741.116C18132.6,741.109 18132.6,741.102 18132.6,741.095L18171.8,686.634C18161.2,666.52 18152.3,645.547 18145.4,624.035L18077.7,612.484C18045.2,607.025 18021.5,579.046 18021.5,546.062C18021.5,546.062 18021.5,458.116 18021.5,458.116C18021.5,425.132 18045.2,397.153 18077.7,391.694L18143.7,380.561C18150.4,358.859 18158.9,337.86 18169.3,317.564L18129.5,261.599C18110.4,234.757 18113.5,198.133 18136.8,174.93C18136.8,174.928 18136.8,174.926 18136.8,174.924C18136.8,174.924 18199.2,112.672 18199.2,112.714C18211.7,99.963 18228.8,92.894 18246.8,92.894C18260.9,92.894 18274.5,97.226 18285.9,105.42L18340.6,144.782C18360.7,134.176 18381.7,125.328 18403.2,118.399ZM18805.8,159.019L18733.9,210.681C18723,218.412 18708.8,218.915 18697.3,212.176C18669.7,195.941 18640.1,183.816 18609.1,176.008C18596.1,172.764 18586.4,162.051 18584.1,148.823C18584.1,148.82 18584.1,148.817 18584.1,148.813C18584.1,148.813 18569.5,61.703 18569.5,61.629C18569.5,61.655 18569.5,61.696 18569.5,61.696C18569.5,61.696 18481.6,61.696 18481.6,61.696C18481.6,61.696 18481.6,61.655 18481.6,61.629C18481.6,61.657 18481.6,61.686 18481.6,61.715C18481.6,61.715 18466.5,150.079 18466.5,150.094C18464.3,163.05 18454.6,173.533 18441.8,177.042C18411.6,184.848 18382.6,197.176 18355.9,213.226C18344.4,219.952 18330,219.448 18319,211.726C18319,211.72 18319,211.714 18319,211.708L18246.9,160.326L18246.9,160.357C18246.9,160.357 18184.6,222.608 18184.6,222.608C18184.6,222.624 18184.6,222.65 18184.6,222.633C18184.6,222.633 18236.6,295.747 18236.6,295.719C18244.3,306.469 18245.1,320.719 18238.3,332.222C18222.5,359.137 18210.8,388.313 18203.2,418.506C18200,431.484 18189.3,441.238 18176,443.484C18176,443.485 18176,443.485 18176,443.486C18176,443.486 18088.9,458.109 18088.8,458.121C18088.9,458.117 18088.9,458.142 18088.9,458.116C18088.9,458.116 18088.9,546.062 18088.9,546.062C18088.9,546.036 18088.9,546.061 18088.8,546.057C18088.9,546.062 18088.9,546.066 18088.9,546.071C18088.9,546.071 18177.3,561.112 18177.3,561.115C18190.3,563.357 18200.7,573.053 18204.2,585.838C18212.1,616.036 18224.4,644.999 18240.4,671.75C18247.2,683.209 18246.7,697.658 18238.9,708.619C18238.9,708.627 18238.9,708.636 18238.9,708.644L18187.5,780.689C18187.5,780.705 18187.5,780.72 18187.6,780.734L18249.8,842.985C18249.9,842.947 18250,842.901 18250.1,842.855L18322.9,791.063C18328.6,786.797 18335.7,784.764 18342.4,784.764C18348.2,784.764 18354.1,786.26 18359.4,789.253C18385.9,804.466 18414.3,816.187 18443.6,823.789C18456.4,827.037 18466.1,837.518 18468.4,850.759C18468.4,850.764 18468.4,850.77 18468.4,850.775C18468.4,850.775 18483,938.512 18483,938.58C18483,938.554 18483,938.512 18483,938.512L18571,938.512C18570.9,938.512 18571,938.554 18571,938.58C18571,938.553 18571,938.527 18571,938.5C18571,938.5 18585.8,850.763 18585.8,850.843C18587.8,837.82 18597.6,827.039 18610.5,823.794C18640.7,815.986 18669.7,804.071 18696.7,788.027C18708.1,781.284 18722.6,781.821 18733.3,789.543L18805.8,841.136L18805.9,841.106C18805.9,841.106 18868.1,778.854 18868.1,778.854C18868.1,778.838 18868.1,778.812 18868.1,778.824C18868.1,778.824 18816.5,706.128 18816.5,706.112C18808.8,695.139 18808.3,680.924 18815,669.422C18831.1,642.506 18843,613.535 18850.8,583.35C18854,570.609 18864.5,560.853 18877.8,558.605C18877.8,558.604 18877.8,558.603 18877.8,558.602C18877.8,558.602 18965.5,543.979 18965.6,543.968C18965.6,543.972 18965.5,543.947 18965.5,543.973C18965.5,543.453 18965.6,542.949 18965.7,542.473L18965.7,456.027C18965.7,456.053 18965.8,456.028 18965.8,456.032C18965.8,456.028 18965.7,456.023 18965.7,456.019C18965.7,456.019 18878,441.187 18878,441.2C18865,439.196 18854.2,429.441 18851,416.46C18843.2,386.256 18831.3,357.285 18815.2,330.339C18808.5,318.851 18809,304.369 18816.7,293.657L18868.3,221.191C18868.3,221.175 18868.3,221.16 18868.3,221.146L18806.1,158.895C18806,158.931 18805.9,158.975 18805.8,159.019ZM18187.5,780.688L18187.7,780.474C18187.6,780.549 18187.5,780.622 18187.5,780.688ZM18527,278.709C18404.9,278.709 18305.7,377.893 18305.7,500C18305.7,622.107 18404.9,721.291 18527,721.291C18649.1,721.291 18748.3,622.107 18748.3,500C18748.3,377.893 18649.1,278.709 18527,278.709ZM18527,653.889C18442.1,653.889 18373.1,584.911 18373.1,500C18373.1,415.089 18442.1,346.111 18527,346.111C18611.9,346.111 18680.9,415.089 18680.9,500C18680.9,584.911 18611.9,653.889 18527,653.889ZM18868.3,221.192L18868.2,221.406C18868.2,221.331 18868.3,221.258 18868.3,221.192Z" style="fill-rule: nonzero; fill: rgb(110, 118, 142);" transform="matrix(0.443396, 0, 0, 0.432212, -7969.904673, 28.741228)"/>
</svg>