<?xml version="1.0" encoding="utf-8"?>
<svg viewBox="56.435 35.022 377.514 415.181" width="377.514" height="415.181" xmlns="http://www.w3.org/2000/svg">
  <clipPath id="clip-2">
    <rect id="rect-2" x="3327" y="0" width="1000" height="1000"/>
  </clipPath>
  <g clip-path="url(#clip-2)" transform="matrix(0.415201, 0, 0, 0.415201, -1343.786968, 35.002777)">
    <g id="g-1" transform="matrix(64.1026,0,0,64.1026,1751.69,-30520.1)">
      <path d="M26.628,490.369L36.537,490.369C36.703,490.369 36.837,490.503 36.837,490.669L36.837,491.414C36.837,491.58 36.703,491.714 36.537,491.714C36.537,491.714 26.421,491.714 26.421,491.714C25.793,491.714 25.283,491.204 25.283,490.576L25.283,480.589C25.283,480.423 25.417,480.289 25.583,480.289L26.328,480.289C26.494,480.289 26.628,480.423 26.628,480.589L26.628,490.369ZM31.8,477.801C31.877,476.857 32.669,476.114 33.633,476.114L33.892,476.114C34.856,476.114 35.647,476.857 35.725,477.801L38.329,477.801C38.957,477.801 39.467,478.311 39.467,478.939L39.467,487.801C39.467,488.429 38.957,488.939 38.329,488.939C38.329,488.939 29.196,488.939 29.196,488.939C28.568,488.939 28.058,488.429 28.058,487.801L28.058,478.939C28.058,478.311 28.568,477.801 29.196,477.801L31.8,477.801ZM31.794,479.195L31.794,479.146L29.403,479.146L29.403,487.594L38.122,487.594L38.122,479.146L35.731,479.146L35.731,479.195L36.537,479.195C36.703,479.195 36.837,479.33 36.837,479.495L36.837,480.24C36.837,480.406 36.703,480.54 36.537,480.54L30.987,480.54C30.822,480.54 30.687,480.406 30.687,480.24L30.687,479.495C30.687,479.33 30.822,479.195 30.987,479.195L31.794,479.195ZM33.139,479.146L33.139,479.195L34.386,479.195L34.386,479.146L33.139,479.146ZM34.362,477.801C34.298,477.603 34.111,477.459 33.892,477.459L33.633,477.459C33.413,477.459 33.227,477.603 33.163,477.801L34.362,477.801Z" style="fill:rgb(110,118,142);"/>
    </g>
  </g>
</svg>